# xmcd
#
# Track frame offsets: 
#        150
#        17389
#        39170
#        58332
#        73547
#        93410
#        113599
#        128601
#        147822
#        164542
#        182220
#        204447
#
# Disc length: 2988 seconds
#
# Revision: 0
# Processed by: cddbd v1.5.2PL0 Copyright (c) Steve Scherf et al.
# Submitted via: ExactAudioCopy v1.1
#
DISCID=9c0baa0c
DTITLE=GILLE - I AM GILLE. 2
DYEAR=2013
DGENRE=JPop
TTITLE0=行くぜっ!怪盗少女
TTITLE1=ヒーロー
TTITLE2=女々しくて
TTITLE3=Live While We’re Young
TTITLE4=100万回の「I love you」
TTITLE5=さくら(独唱)
TTITLE6=じょいふる
TTITLE7=LIFE
TTITLE8=JODY
TTITLE9=Locked Out Of Heaven
TTITLE10=アルクアラウンド
TTITLE11=夢やぶれて -I DREAMED A DREAM-
EXTD=
EXTT0=
EXTT1=
EXTT2=
EXTT3=
EXTT4=
EXTT5=
EXTT6=
EXTT7=
EXTT8=
EXTT9=
EXTT10=
EXTT11=
PLAYORDER=
